<mxfile host="app.diagrams.net" modified="2023-02-03T01:31:26.806Z" agent="5.0 (Macintosh; Intel Mac OS X 10_15_7) AppleWebKit/537.36 (KHTML, like Gecko) Chrome/109.0.0.0 Safari/537.36" etag="2WfiGraoM8Xgm-dWFnWv" version="20.8.14" type="github">
  <diagram name="第 1 页" id="I_fAqlPjK8Y6YAbDZ6kA">
    <mxGraphModel dx="901" dy="426" grid="1" gridSize="10" guides="1" tooltips="1" connect="1" arrows="1" fold="1" page="1" pageScale="1" pageWidth="827" pageHeight="1169" math="0" shadow="0">
      <root>
        <mxCell id="0" />
        <mxCell id="1" parent="0" />
        <mxCell id="8pMM1Szp6b2bAWyBwY2U-20" value="" style="ellipse;whiteSpace=wrap;html=1;" vertex="1" parent="1">
          <mxGeometry x="5" y="160" width="190" height="125" as="geometry" />
        </mxCell>
        <mxCell id="8pMM1Szp6b2bAWyBwY2U-1" value="" style="whiteSpace=wrap;html=1;aspect=fixed;" vertex="1" parent="1">
          <mxGeometry x="80" y="60" width="40" height="40" as="geometry" />
        </mxCell>
        <mxCell id="8pMM1Szp6b2bAWyBwY2U-2" value="" style="whiteSpace=wrap;html=1;aspect=fixed;" vertex="1" parent="1">
          <mxGeometry x="320" y="60" width="40" height="40" as="geometry" />
        </mxCell>
        <mxCell id="8pMM1Szp6b2bAWyBwY2U-3" value="" style="whiteSpace=wrap;html=1;aspect=fixed;" vertex="1" parent="1">
          <mxGeometry x="560" y="60" width="40" height="40" as="geometry" />
        </mxCell>
        <mxCell id="8pMM1Szp6b2bAWyBwY2U-4" value="" style="whiteSpace=wrap;html=1;aspect=fixed;" vertex="1" parent="1">
          <mxGeometry x="200" y="60" width="40" height="40" as="geometry" />
        </mxCell>
        <mxCell id="8pMM1Szp6b2bAWyBwY2U-5" value="" style="whiteSpace=wrap;html=1;aspect=fixed;" vertex="1" parent="1">
          <mxGeometry x="440" y="60" width="40" height="40" as="geometry" />
        </mxCell>
        <mxCell id="8pMM1Szp6b2bAWyBwY2U-6" value="" style="whiteSpace=wrap;html=1;aspect=fixed;" vertex="1" parent="1">
          <mxGeometry x="680" y="60" width="40" height="40" as="geometry" />
        </mxCell>
        <mxCell id="8pMM1Szp6b2bAWyBwY2U-7" value="" style="whiteSpace=wrap;html=1;aspect=fixed;" vertex="1" parent="1">
          <mxGeometry x="720" y="340" width="40" height="40" as="geometry" />
        </mxCell>
        <mxCell id="8pMM1Szp6b2bAWyBwY2U-8" value="" style="whiteSpace=wrap;html=1;aspect=fixed;" vertex="1" parent="1">
          <mxGeometry x="640" y="340" width="40" height="40" as="geometry" />
        </mxCell>
        <mxCell id="8pMM1Szp6b2bAWyBwY2U-9" value="" style="whiteSpace=wrap;html=1;aspect=fixed;" vertex="1" parent="1">
          <mxGeometry x="560" y="340" width="40" height="40" as="geometry" />
        </mxCell>
        <mxCell id="8pMM1Szp6b2bAWyBwY2U-10" value="" style="whiteSpace=wrap;html=1;aspect=fixed;" vertex="1" parent="1">
          <mxGeometry x="480" y="340" width="40" height="40" as="geometry" />
        </mxCell>
        <mxCell id="8pMM1Szp6b2bAWyBwY2U-11" value="" style="whiteSpace=wrap;html=1;aspect=fixed;" vertex="1" parent="1">
          <mxGeometry x="400" y="340" width="40" height="40" as="geometry" />
        </mxCell>
        <mxCell id="8pMM1Szp6b2bAWyBwY2U-12" value="" style="whiteSpace=wrap;html=1;aspect=fixed;" vertex="1" parent="1">
          <mxGeometry x="320" y="340" width="40" height="40" as="geometry" />
        </mxCell>
        <mxCell id="8pMM1Szp6b2bAWyBwY2U-13" value="" style="whiteSpace=wrap;html=1;aspect=fixed;" vertex="1" parent="1">
          <mxGeometry x="240" y="340" width="40" height="40" as="geometry" />
        </mxCell>
        <mxCell id="8pMM1Szp6b2bAWyBwY2U-14" value="" style="whiteSpace=wrap;html=1;aspect=fixed;" vertex="1" parent="1">
          <mxGeometry x="160" y="340" width="40" height="40" as="geometry" />
        </mxCell>
        <mxCell id="8pMM1Szp6b2bAWyBwY2U-15" value="" style="whiteSpace=wrap;html=1;aspect=fixed;" vertex="1" parent="1">
          <mxGeometry x="80" y="340" width="40" height="40" as="geometry" />
        </mxCell>
        <mxCell id="8pMM1Szp6b2bAWyBwY2U-16" value="" style="rounded=0;whiteSpace=wrap;html=1;" vertex="1" parent="1">
          <mxGeometry x="50" y="180" width="40" height="30" as="geometry" />
        </mxCell>
        <mxCell id="8pMM1Szp6b2bAWyBwY2U-17" value="" style="rounded=0;whiteSpace=wrap;html=1;" vertex="1" parent="1">
          <mxGeometry x="110" y="180" width="40" height="30" as="geometry" />
        </mxCell>
        <mxCell id="8pMM1Szp6b2bAWyBwY2U-18" value="" style="rounded=0;whiteSpace=wrap;html=1;" vertex="1" parent="1">
          <mxGeometry x="110" y="230" width="40" height="30" as="geometry" />
        </mxCell>
        <mxCell id="8pMM1Szp6b2bAWyBwY2U-19" value="" style="rounded=0;whiteSpace=wrap;html=1;" vertex="1" parent="1">
          <mxGeometry x="50" y="230" width="40" height="30" as="geometry" />
        </mxCell>
        <mxCell id="8pMM1Szp6b2bAWyBwY2U-21" value="" style="shape=flexArrow;endArrow=classic;html=1;rounded=0;" edge="1" parent="1">
          <mxGeometry width="50" height="50" relative="1" as="geometry">
            <mxPoint x="99.5" y="100" as="sourcePoint" />
            <mxPoint x="99.5" y="160" as="targetPoint" />
          </mxGeometry>
        </mxCell>
        <mxCell id="8pMM1Szp6b2bAWyBwY2U-22" value="" style="shape=flexArrow;endArrow=classic;html=1;rounded=0;" edge="1" parent="1">
          <mxGeometry width="50" height="50" relative="1" as="geometry">
            <mxPoint x="99.5" y="285" as="sourcePoint" />
            <mxPoint x="100" y="340" as="targetPoint" />
          </mxGeometry>
        </mxCell>
        <mxCell id="8pMM1Szp6b2bAWyBwY2U-23" value="&lt;h2&gt;&lt;font style=&quot;font-size: 24px;&quot;&gt;CKB&lt;/font&gt;&lt;/h2&gt;" style="text;strokeColor=none;align=center;fillColor=none;html=1;verticalAlign=middle;whiteSpace=wrap;rounded=0;shadow=1;" vertex="1" parent="1">
          <mxGeometry x="380" y="210" width="60" height="30" as="geometry" />
        </mxCell>
      </root>
    </mxGraphModel>
  </diagram>
</mxfile>
